<?xml version="1.0" encoding="UTF-8"?>
<svg id="Calque_1" data-name="Calque 1" xmlns="http://www.w3.org/2000/svg" viewBox="0 0 1024 605.46">
  <defs>
    <style>
      .cls-1 {
        fill: #fff;
      }
    </style>
  </defs>
  <g>
    <path class="cls-1" d="M421.75,427.17L672.85,39.49l-49.55-.1-250.57,387.36,49.02.43Z"/>
    <g>
      <path d="M246.37,361.16l45.16-.15,103.86-159.95h77.13s-146.38,226.16-146.38,226.16l-91.15.12c-48.71.07-94.42-17.08-130.52-49.2-67.06-58.78-85.2-155.15-43.31-234.31,32.78-61.94,97.2-101.88,167.75-104.89l347.9.08-41.67,64.26H252.2c-61.38-1.97-114.89,38.15-130.3,97.68l127.71.05-84.12,130.67c21.98,19.01,50.51,29.58,80.88,29.48Z"/>
      <path d="M864.08,327.72c38.98-36.12,51.87-89.37,33.96-139.82-16.02-45.13-58.63-79.86-109.33-83.88-14.89-1.18-29.18-.52-44.05-.14l-62.48,96.94,101.69.8c16.88.13,27.05,17.7,26.44,32.37-.67,16.23-13.13,30.1-30.83,30.11l-138.13.08-105.63,163.12-69.76-.19L717.67,38.98l81.73.47c48.06.27,92.96,22.72,127.16,55.8,68.87,66.61,78.58,174.17,21.96,251.49-35.4,48.34-91.2,80.11-151.89,80.23l-155.64.32,42.84-65.95,95.82-.2c31.53-.07,60.84-11.54,84.43-33.4Z"/>
      <polygon points="421.75 427.17 372.73 426.74 623.3 39.38 672.85 39.49 421.75 427.17"/>
    </g>
  </g>
  <g>
    <g>
      <path d="M354.6,518.48v1.41c0,9.65,9.71,16.28,20.12,16.28h7.32v5.83h-7.88c-14.35,0-27.72-8.34-27.72-20.4v-55.16h8.16v25.02h27.44v5.83h-27.44v21.2Z"/>
      <path d="M460.69,514.66v3.82c0,11.56-13.93,23.41-30.11,23.41h-24.48v24.92h-7.74v-75.26h7.74v8.24c6.61-5.53,12.8-8.24,20.96-8.24h3.52c16.18,0,30.11,11.55,30.11,23.11ZM452.81,515.77c0-8.34-10.41-18.69-22.23-18.69h-3.52c-10.69,0-19.42,7.03-20.96,14.77v24.32h24.48c11.82,0,22.23-10.35,22.23-18.79v-1.61Z"/>
      <path d="M568.47,519.69h-54.17l.14.4c.56,3.92,3.24,7.84,7.03,10.75,4.22,3.22,9.29,5.53,14.49,5.53h23.5v5.73h-23.5c-15.2,0-29.55-11.15-29.55-22.91v-4.52c0-11.76,14.35-22.91,29.55-22.91h3.66c14.77,0,28.14,10.55,28.84,22.11v5.83ZM560.45,514.06v-.3c-.7-3.92-3.38-16.68-20.82-16.68h-3.66c-15.48,0-20.96,12.76-21.53,16.68l-.14.3h46.15Z"/>
      <path d="M641.78,533.05c-2.95,2.71-6.75,5.02-10.97,6.53-4.64,1.81-9.57,2.71-14.49,2.71h-3.94c-4.22,0-8.44-.7-12.52-2.01-3.94-1.21-7.6-3.01-10.55-5.23-6.33-4.42-9.71-11.25-9.71-16.78v-3.82c0-5.53,3.52-11.25,9.85-15.67,2.96-2.21,6.47-4.02,10.41-5.22,4.08-1.31,8.3-2.01,12.52-2.01h3.94c4.92,0,9.85.9,14.49,2.71,4.22,1.61,8.02,3.82,11.12,6.53l-7.04,3.11c-4.78-4.42-11.68-6.53-18.57-6.53h-3.94c-13.65,0-24.62,8.04-24.62,18.59v1.61c0,9.85,10.97,18.89,24.62,18.89h3.94c6.89,0,13.65-2.51,18.43-6.83l7.04,3.42Z"/>
      <path d="M709.74,525.21v1.91c0,6.83-9,14.87-24.34,14.87h-33.21v-5.83h32.36c12.1,0,16.6-5.83,16.6-9.54v-1.31c0-5.12-6.19-8.54-17.02-8.54h-10.69c-15.34,0-22.79-5.53-22.79-11.96,0-.1,0,.1,0,0v-1.1c0-6.23,4.64-12.16,20.96-12.16h30.81v5.63h-28.56c-7.88,0-14.63.8-14.63,6.23v1.11c0,4.92,8.86,6.13,14.63,6.13h14.35c15.76,0,21.53,7.03,21.53,14.57Z"/>
      <path d="M764.33,492.46v6.43c-2.39-.6-4.36-.8-7.04-1h-3.52c-10.69,0-17.87,7.74-21.25,14.27v29.84h-8.02v-50.34h8.02v9.85c3.8-5.33,13.08-9.85,21.25-9.85h3.52c2.39,0,4.78.3,7.04.8Z"/>
    </g>
    <circle cx="302.6" cy="504.13" r="27.54"/>
  </g>
</svg>