<?xml version="1.0" encoding="UTF-8" standalone="no"?>
<!-- Generator: Adobe Illustrator 13.0.0, SVG Export Plug-In  -->

<svg
   xmlns:dc="http://purl.org/dc/elements/1.1/"
   xmlns:cc="http://creativecommons.org/ns#"
   xmlns:rdf="http://www.w3.org/1999/02/22-rdf-syntax-ns#"
   xmlns:svg="http://www.w3.org/2000/svg"
   xmlns="http://www.w3.org/2000/svg"
   xmlns:sodipodi="http://sodipodi.sourceforge.net/DTD/sodipodi-0.dtd"
   xmlns:inkscape="http://www.inkscape.org/namespaces/inkscape"
   version="1.1"
   x="0px"
   y="0px"
   width="300"
   height="187.5"
   viewBox="-0.082 -0.083 300 187.5"
   enable-background="new -0.082 -0.083 390 198"
   xml:space="preserve"
   id="svg2"
   inkscape:version="0.91 r13725"
   sodipodi:docname="France_road_sign_M9v4.svg"><metadata
     id="metadata52"><rdf:RDF><cc:Work
         rdf:about=""><dc:format>image/svg+xml</dc:format><dc:type
           rdf:resource="http://purl.org/dc/dcmitype/StillImage" /><dc:title /></cc:Work></rdf:RDF></metadata><sodipodi:namedview
     pagecolor="#ffffff"
     bordercolor="#666666"
     borderopacity="1"
     objecttolerance="10"
     gridtolerance="10"
     guidetolerance="10"
     inkscape:pageopacity="0"
     inkscape:pageshadow="2"
     inkscape:window-width="1440"
     inkscape:window-height="788"
     id="namedview50"
     showgrid="false"
     inkscape:zoom="1.8543056"
     inkscape:cx="72.141352"
     inkscape:cy="95.296696"
     inkscape:window-x="0"
     inkscape:window-y="1"
     inkscape:window-maximized="1"
     inkscape:current-layer="svg2" /><defs
     id="defs4" /><rect
     style="opacity:1;fill:#ffffff;fill-opacity:1;fill-rule:evenodd;stroke:#000000;stroke-width:3.99998999;stroke-linecap:round;stroke-linejoin:round;stroke-miterlimit:4;stroke-dasharray:none;stroke-dashoffset:0;stroke-opacity:1"
     id="rect4365"
     width="295.9993"
     height="183.42329"
     x="1.9181458"
     y="1.9938585"
     ry="30.527151" /><g
     style="font-size:60px;font-family:Arial-BoldMT;fill:#000000"
     id="text4361"
     transform="matrix(1.153881,0,0,1.1537125,-481.60684,-76.346001)"><path
       inkscape:connector-curvature="0"
       d="m 487.30075,113.33772 0,-0.0488 q 0,-0.26856 0.56152,-0.36621 4.32129,-1.39161 5.61524,-2.00196 0.65918,0.90332 1.7334,1.63575 1.7334,1.02539 3.71093,1.24511 2.09961,0.0488 2.61231,-0.0977 2.41699,-0.6836 2.97851,-1.39161 0.56153,-0.48828 0.97657,-2.36816 0.0976,-0.73242 -0.19532,-1.63574 -0.36621,-0.61035 -0.78125,-1.02539 l -0.83007,-0.63477 -0.92774,-0.41504 q -7.73926,-2.41699 -8.52051,-2.83203 -3.58886,-1.44043 -5.34668,-4.76074 -1.14746,-2.22168 -1.02539,-5.395508 0.46387,-3.955078 3.24707,-6.274414 3.125,-2.270508 6.51856,-2.465821 l 0.63476,0 q 2.417,0 4.00391,0.366211 3.22266,0.903321 5.0293,2.514649 1.80664,1.489258 2.97851,4.052734 l -0.0732,0.268555 -5.0293,2.416992 -0.24414,-0.12207 q -0.46386,-1.489258 -2.6123,-2.416993 -2.41699,-0.90332 -5.66406,-0.04883 -1.3916,0.463868 -1.95313,1.196289 -0.19531,0.195313 -0.51269,1.220704 -0.0488,1.196289 0.0976,1.391601 0.31739,0.830078 1.26953,1.489258 l 0.63477,0.268555 q 6.93359,2.050781 9.39941,2.978518 2.12403,0.97656 3.24707,2.14844 l 1.36719,1.85547 q 1.51367,2.51464 1.61133,5.49316 0.0244,0.19531 0.0244,0.46387 0,0.95215 -0.29297,2.56347 -0.61035,2.27051 -1.46484,3.34473 -1.46484,1.80664 -2.12402,2.17285 -3.58887,2.46582 -7.39746,2.66113 l -2.22168,0 q -2.49024,-0.24414 -4.19922,-0.97656 -2.73438,-1.26953 -4.41895,-2.83203 -1.3916,-1.26953 -2.41699,-3.63769 z"
       style="font-style:normal;font-variant:normal;font-weight:500;font-stretch:normal;font-size:50px;font-family:'Caracteres L1';-inkscape-font-specification:'Caracteres L1 Medium';letter-spacing:4.69999981px;fill:#000000"
       id="path4385" /><path
       inkscape:connector-curvature="0"
       d="m 536.28786,84.797676 9.22852,35.766604 -7.00684,0 -1.53809,-6.0791 -9.88769,0 -1.5625,6.0791 -7.08008,0 9.13086,-35.766604 8.71582,0 z m -7.86133,22.875974 7.05567,0 -3.41797,-13.964841 -3.6377,13.964841 z"
       style="font-style:normal;font-variant:normal;font-weight:500;font-stretch:normal;font-size:50px;font-family:'Caracteres L1';-inkscape-font-specification:'Caracteres L1 Medium';letter-spacing:4.69999981px;fill:#000000"
       id="path4387" /><path
       inkscape:connector-curvature="0"
       d="m 560.12849,84.895332 0,24.218748 q 0.46386,4.63867 5.22461,5.17578 4.6875,-0.51269 5.27343,-5.10254 l 0,-24.291988 6.90918,0 0,26.098638 q -0.90332,4.78515 -4.5166,7.44628 -3.22265,2.27051 -6.5918,2.39258 -0.5371,0.0488 -1.0498,0.0488 -5.00488,0 -8.27637,-2.90527 -3.73535,-3.61328 -3.95508,-7.37305 l 0,-25.708008 6.98243,0 z"
       style="font-style:normal;font-variant:normal;font-weight:500;font-stretch:normal;font-size:50px;font-family:'Caracteres L1';-inkscape-font-specification:'Caracteres L1 Medium';letter-spacing:4.69999981px;fill:#000000"
       id="path4389" /><path
       inkscape:connector-curvature="0"
       d="m 607.30895,84.797676 0,6.542969 -14.79492,0 0,7.8125 10.83984,0 0,6.640625 -10.83984,0 -0.0244,14.79492 -6.88477,0 0.0244,-35.791014 21.67969,0 z"
       style="font-style:normal;font-variant:normal;font-weight:500;font-stretch:normal;font-size:50px;font-family:'Caracteres L1';-inkscape-font-specification:'Caracteres L1 Medium';letter-spacing:4.69999981px;fill:#000000"
       id="path4391" /></g><path
     inkscape:connector-curvature="0"
     id="path4342"
     d="m 126.8192,72.684958 -10.55007,5.019235 c -3.53038,2.095655 -3.72026,4.62788 -2.04203,7.402918 l 2.85954,5.845463 -0.97614,2.491752 -17.453594,0 0,13.443604 12.188584,0 -3.7276,9.51816 a 28.927653,28.927653 0 0 0 -8.121074,-1.18094 28.927653,28.927653 0 0 0 -17.08842,5.62583 l 1.75704,2.50831 a 25.864725,25.864725 0 0 0 -10.53264,20.79423 25.864725,25.864725 0 0 0 25.86402,25.86402 25.864725,25.864725 0 0 0 22.465854,-13.11242 l 2.70006,1.44415 a 28.927653,28.927653 0 0 0 3.76246,-14.19575 28.927653,28.927653 0 0 0 -15.52922,-25.6226 l 2.04901,-5.23276 26.64144,18.76788 c 0.26997,8.09972 1.13257,16.10001 10.32085,16.3415 7.10318,0.51175 14.20801,0.77976 21.31542,0.92645 a 25.864725,25.864725 0 0 0 25.3376,20.68355 25.864725,25.864725 0 0 0 25.86489,-25.86402 25.864725,25.864725 0 0 0 -0.25624,-3.42082 l 3.03386,-0.40527 a 28.927653,28.927653 0 0 0 -18.50555,-23.2302 l 8.21258,0 0,-5.44543 -40.88686,0 1.57401,-4.858 9.55476,0 c 6.12655,-1.05674 4.94929,-8.35349 0.44624,-8.546381 -0.14527,-0.0062 -0.29419,-0.0055 -0.44624,0.0035 l -26.63969,0 0,5.414921 9.43362,3.85049 0.36867,-0.0366 -4.1137,11.4896 c -3.09795,6.65546 -9.58676,8.0019 -12.97733,7.42384 -4.46722,-0.76162 -9.29694,-5.33921 -10.67471,-11.168 l -22.23838,-15.626845 2.49088,-6.360547 c 0.73733,-1.858601 0.45192,-2.330795 -0.19261,-3.445224 l -3.45743,-7.238194 10.72003,-4.934698 -2.55189,-4.934695 z M 98.996816,123.73406 a 20.41952,20.41952 0 0 1 4.997454,0.64668 l -5.988404,15.29216 c -2.1026,0.46466 -3.60038,2.32729 -3.60298,4.48062 2.6e-4,2.53705 2.05688,4.59366 4.59393,4.59392 2.537384,2.2e-4 4.594534,-2.05654 4.594794,-4.59392 -0.002,-0.68662 -0.15705,-1.36414 -0.45495,-1.98277 l 6.12698,-15.64426 a 20.41952,20.41952 0 0 1 10.15351,17.62703 20.41952,20.41952 0 0 1 -20.420334,20.41947 20.41952,20.41952 0 0 1 -20.41947,-20.41947 20.41952,20.41952 0 0 1 20.41947,-20.41946 z m 99.063474,0 a 20.41952,20.41952 0 0 1 20.42034,20.41946 20.41952,20.41952 0 0 1 -20.42034,20.41947 20.41952,20.41952 0 0 1 -19.71787,-15.14574 c 3.45644,0.0424 6.91429,0.0601 10.37228,0.0688 a 10.468117,10.468117 0 0 0 8.64574,4.58521 10.468117,10.468117 0 0 0 10.46815,-10.46815 10.468117,10.468117 0 0 0 -10.46815,-10.46814 l -16.4731,0 a 20.41952,20.41952 0 0 1 17.17295,-9.41096 z m -22.56434,7.84043 a 25.864725,25.864725 0 0 0 -0.19523,0.33903 l -0.004,-0.18825 0.19959,-0.15078 z"
     style="opacity:1;fill:#000000;fill-opacity:1;fill-rule:evenodd;stroke:none;stroke-width:0.40000001;stroke-linecap:round;stroke-linejoin:round;stroke-miterlimit:4;stroke-dasharray:none;stroke-dashoffset:0;stroke-opacity:1" /></svg>